<?xml version="1.0" standalone="no"?>
<!DOCTYPE svg PUBLIC "-//W3C//DTD SVG 20010904//EN"
 "http://www.w3.org/TR/2001/REC-SVG-20010904/DTD/svg10.dtd">
<svg version="1.0" xmlns="http://www.w3.org/2000/svg"
 width="100.000000pt" height="100.000000pt" viewBox="0 0 200.000000 200.000000"
 preserveAspectRatio="xMidYMid meet">
<metadata>
Created by potrace 1.10, written by Peter Selinger 2001-2011
</metadata>
<g transform="translate(0.000000,200.000000) scale(0.100000,-0.100000)"
fill="#000000" stroke="none">
<path d="M542 1663 c3 -15 14 -18 68 -18 54 0 65 3 68 18 3 15 -5 17 -68 17
-63 0 -71 -2 -68 -17z"/>
<path d="M740 1660 c0 -19 5 -21 68 -18 52 2 67 6 67 18 0 12 -15 16 -67 18
-63 3 -68 1 -68 -18z"/>
<path d="M940 1660 c0 -19 5 -21 68 -18 52 2 67 6 67 18 0 12 -15 16 -67 18
-63 3 -68 1 -68 -18z"/>
<path d="M1137 1672 c-14 -22 12 -33 74 -30 49 2 64 7 64 18 0 12 -15 16 -67
18 -36 2 -69 -1 -71 -6z"/>
<path d="M1335 1670 c-12 -19 7 -28 70 -32 54 -3 60 -1 60 17 0 18 -8 20 -62
23 -38 2 -64 -1 -68 -8z"/>
<path d="M400 1652 c-42 -17 -68 -52 -38 -52 24 0 113 32 120 44 19 29 -17 33
-82 8z"/>
<path d="M1533 1635 c-3 -9 -4 -17 -2 -19 20 -14 100 -56 108 -56 6 0 11 8 11
18 0 10 -20 28 -49 45 -57 32 -60 32 -68 12z"/>
<path d="M237 1542 c-41 -42 -46 -50 -33 -61 12 -10 22 -5 61 35 37 39 43 50
32 61 -10 11 -21 4 -60 -35z"/>
<path d="M505 1556 c-114 -37 -190 -101 -238 -204 l-32 -67 0 -255 0 -255 32
-67 c40 -84 97 -141 181 -181 l67 -32 374 -3 c344 -3 373 -2 367 13 -3 9 -9
28 -12 41 l-6 24 -342 0 c-403 0 -408 1 -497 89 -83 83 -89 109 -89 371 0 262
6 288 89 371 90 90 85 89 571 89 486 0 481 1 571 -89 76 -77 89 -118 89 -288
0 -128 1 -133 21 -133 11 0 29 -5 41 -11 20 -11 20 -9 16 153 -3 158 -4 165
-35 230 -39 84 -97 141 -181 181 l-67 32 -440 2 c-336 2 -449 -1 -480 -11z"/>
<path d="M1690 1511 c0 -10 7 -24 16 -32 8 -7 22 -26 30 -41 9 -18 22 -28 32
-26 25 5 21 20 -15 72 -34 47 -63 60 -63 27z"/>
<path d="M136 1396 c-7 -18 -17 -47 -21 -65 -6 -26 -4 -31 12 -31 15 0 24 14
36 53 21 66 21 77 2 77 -8 0 -21 -15 -29 -34z"/>
<path d="M1786 1351 c-3 -4 0 -36 6 -70 9 -47 15 -61 27 -59 13 3 15 15 13 53
-5 67 -28 106 -46 76z"/>
<path d="M828 1279 c-16 -9 -18 -32 -18 -249 0 -233 1 -240 21 -251 24 -12 38
-3 234 143 89 67 110 88 110 108 0 21 -28 46 -155 142 -85 65 -159 117 -165
117 -5 0 -18 -4 -27 -10z m173 -141 c67 -51 124 -98 127 -105 4 -13 -244 -202
-265 -203 -10 0 -13 46 -13 200 0 163 3 200 14 200 7 0 69 -42 137 -92z"/>
<path d="M100 1170 c0 -63 2 -71 18 -68 14 3 17 14 17 68 0 54 -3 65 -17 68
-16 3 -18 -5 -18 -68z"/>
<path d="M1800 1090 c0 -63 2 -71 18 -68 14 3 17 14 17 68 0 54 -3 65 -17 68
-16 3 -18 -5 -18 -68z"/>
<path d="M102 973 c2 -53 6 -68 18 -68 12 0 16 15 18 68 3 62 1 67 -18 67 -19
0 -21 -5 -18 -67z"/>
<path d="M1800 937 c0 -13 9 -32 20 -42 20 -18 20 -17 20 23 0 35 -3 42 -20
42 -14 0 -20 -7 -20 -23z"/>
<path d="M1485 922 c-96 -33 -158 -97 -191 -194 -34 -103 5 -241 88 -313 154
-131 390 -79 471 104 104 236 -125 487 -368 403z m171 -37 c61 -18 116 -62
152 -123 23 -40 27 -58 27 -123 0 -67 -4 -81 -30 -124 -109 -176 -341 -176
-450 0 -27 43 -30 57 -30 124 1 91 22 140 87 195 70 61 154 78 244 51z"/>
<path d="M1539 831 c-26 -27 -29 -36 -29 -98 0 -69 0 -69 -32 -78 -17 -6 -40
-22 -51 -36 -17 -24 -18 -29 -4 -55 22 -44 132 -144 157 -144 24 0 134 100
155 140 8 15 9 33 5 46 -10 26 -48 54 -72 54 -16 0 -18 10 -18 74 0 71 -2 75
-31 100 -39 33 -44 32 -80 -3z m69 -140 l3 -124 28 27 c32 31 64 31 69 2 5
-22 -103 -136 -128 -136 -25 0 -133 114 -128 136 5 29 37 28 69 -2 l29 -28 0
120 c0 67 3 124 7 128 4 4 16 6 28 4 19 -3 20 -11 23 -127z"/>
<path d="M105 788 c9 -69 22 -93 40 -78 10 8 11 19 4 43 -5 18 -9 44 -9 59 0
22 -5 28 -21 28 -19 0 -20 -4 -14 -52z"/>
<path d="M150 636 c0 -18 60 -98 77 -104 27 -8 23 28 -9 71 -32 44 -68 62 -68
33z"/>
<path d="M280 485 c0 -15 80 -66 108 -69 9 0 18 6 20 15 2 10 -14 25 -49 42
-57 30 -79 34 -79 12z"/>
<path d="M463 414 c-9 -24 15 -34 80 -34 45 0 57 3 57 15 0 19 -8 22 -78 29
-42 4 -54 2 -59 -10z"/>
<path d="M660 400 c0 -18 7 -20 70 -20 63 0 70 2 70 20 0 18 -7 20 -70 20 -63
0 -70 -2 -70 -20z"/>
<path d="M860 400 c0 -19 5 -21 68 -18 52 2 67 6 67 18 0 12 -15 16 -67 18
-63 3 -68 1 -68 -18z"/>
<path d="M1055 410 c-13 -22 12 -31 76 -28 49 2 64 7 64 18 0 12 -15 16 -67
18 -41 2 -69 -1 -73 -8z"/>
<path d="M1255 410 c-12 -19 6 -30 47 -30 40 0 41 0 23 20 -19 21 -60 27 -70
10z"/>
</g>
</svg>
